<?xml version="1.0" encoding="UTF-8" standalone="no"?>
<!DOCTYPE svg PUBLIC "-//W3C//DTD SVG 1.1//EN"
 "http://www.w3.org/Graphics/SVG/1.1/DTD/svg11.dtd">
<!-- Generated by graphviz version 2.36.0 (20140111.2315)
 -->
<!-- Title: G Pages: 1 -->
<svg width="598pt" height="779pt"
 viewBox="0.00 0.00 598.00 779.00" xmlns="http://www.w3.org/2000/svg" xmlns:xlink="http://www.w3.org/1999/xlink">
<g id="graph0" class="graph" transform="scale(1 1) rotate(0) translate(4 775)">
<title>G</title>
<polygon fill="white" stroke="none" points="-4,4 -4,-775 594,-775 594,4 -4,4"/>
<g id="clust1" class="cluster"><title>cluster_Global</title>
<path fill="none" stroke="gray" d="M188,-44C188,-44 570,-44 570,-44 576,-44 582,-50 582,-56 582,-56 582,-751 582,-751 582,-757 576,-763 570,-763 570,-763 188,-763 188,-763 182,-763 176,-757 176,-751 176,-751 176,-56 176,-56 176,-50 182,-44 188,-44"/>
<text text-anchor="middle" x="379" y="-750.2" font-family="Times,serif" font-size="11.00" fill="gray">Global</text>
</g>
<!-- \\Plinth_Util -->
<g id="node1" class="node"><title>\\Plinth_Util</title>
<polygon fill="none" stroke="black" points="517.399,-736 452.601,-736 452.601,-700 517.399,-700 517.399,-736"/>
<text text-anchor="middle" x="485" y="-714.7" font-family="Times,serif" font-size="11.00">Plinth_Util</text>
</g>
<!-- \\Plinth_Widget_PressContact -->
<g id="node2" class="node"><title>\\Plinth_Widget_PressContact</title>
<polygon fill="none" stroke="black" points="556.167,-520 413.833,-520 413.833,-484 556.167,-484 556.167,-520"/>
<text text-anchor="middle" x="485" y="-498.7" font-family="Times,serif" font-size="11.00">Plinth_Widget_PressContact</text>
</g>
<!-- \\Plinth_Widget_Abstract -->
<g id="node16" class="node"><title>\\Plinth_Widget_Abstract</title>
<polygon fill="none" stroke="black" points="315.494,-601 192.506,-601 192.506,-565 315.494,-565 315.494,-601"/>
<text text-anchor="start" x="231.398" y="-585.2" font-family="Times,serif" font-size="11.00">«abstract»</text>
<text text-anchor="start" x="200.754" y="-574.2" font-family="Times,serif" font-size="11.00">Plinth_Widget_Abstract</text>
</g>
<!-- \\Plinth_Widget_PressContact&#45;&gt;\\Plinth_Widget_Abstract -->
<g id="edge1" class="edge"><title>\\Plinth_Widget_PressContact&#45;&gt;\\Plinth_Widget_Abstract</title>
<path fill="none" stroke="black" d="M423.232,-520.053C414.073,-522.945 404.763,-525.981 396,-529 367.084,-538.96 335.238,-551.058 309.139,-561.276"/>
<polygon fill="none" stroke="black" points="307.826,-558.031 299.8,-564.948 310.387,-564.546 307.826,-558.031"/>
</g>
<!-- \\AtreNet_DateRange -->
<g id="node3" class="node"><title>\\AtreNet_DateRange</title>
<polygon fill="none" stroke="black" points="537.794,-628 432.206,-628 432.206,-592 537.794,-592 537.794,-628"/>
<text text-anchor="middle" x="485" y="-606.7" font-family="Times,serif" font-size="11.00">AtreNet_DateRange</text>
</g>
<!-- \\Plinth_TagHelpers -->
<g id="node4" class="node"><title>\\Plinth_TagHelpers</title>
<polygon fill="none" stroke="black" points="534.329,-574 435.671,-574 435.671,-538 534.329,-538 534.329,-574"/>
<text text-anchor="middle" x="485" y="-552.7" font-family="Times,serif" font-size="11.00">Plinth_TagHelpers</text>
</g>
<!-- \\AtreNet_WordPress_Helper -->
<g id="node5" class="node"><title>\\AtreNet_WordPress_Helper</title>
<polygon fill="none" stroke="black" points="323.75,-439 184.25,-439 184.25,-403 323.75,-403 323.75,-439"/>
<text text-anchor="middle" x="254" y="-417.7" font-family="Times,serif" font-size="11.00">AtreNet_WordPress_Helper</text>
</g>
<!-- \\AtreNet_WordPress_Bridge -->
<g id="node6" class="node"><title>\\AtreNet_WordPress_Bridge</title>
<polygon fill="none" stroke="black" points="323.761,-223 184.239,-223 184.239,-187 323.761,-187 323.761,-223"/>
<text text-anchor="middle" x="254" y="-201.7" font-family="Times,serif" font-size="11.00">AtreNet_WordPress_Bridge</text>
</g>
<!-- \\AtreNet_WPML_Helper -->
<g id="node7" class="node"><title>\\AtreNet_WPML_Helper</title>
<polygon fill="none" stroke="black" points="547.856,-466 422.144,-466 422.144,-430 547.856,-430 547.856,-466"/>
<text text-anchor="middle" x="485" y="-444.7" font-family="Times,serif" font-size="11.00">AtreNet_WPML_Helper</text>
</g>
<!-- \\AtreNet_WPML_Helper&#45;&gt;\\AtreNet_WordPress_Helper -->
<g id="edge2" class="edge"><title>\\AtreNet_WPML_Helper&#45;&gt;\\AtreNet_WordPress_Helper</title>
<path fill="none" stroke="black" d="M422.029,-440.693C394.895,-437.494 362.736,-433.703 333.917,-430.305"/>
<polygon fill="none" stroke="black" points="334.217,-426.816 323.876,-429.121 333.397,-433.768 334.217,-426.816"/>
</g>
<!-- \\AtreNet_WPML_WordPress_Bridge -->
<g id="node8" class="node"><title>\\AtreNet_WPML_WordPress_Bridge</title>
<polygon fill="none" stroke="black" points="574.261,-196 395.739,-196 395.739,-160 574.261,-160 574.261,-196"/>
<text text-anchor="middle" x="485" y="-174.7" font-family="Times,serif" font-size="11.00">AtreNet_WPML_WordPress_Bridge</text>
</g>
<!-- \\AtreNet_WPML_WordPress_Bridge&#45;&gt;\\AtreNet_WordPress_Bridge -->
<g id="edge3" class="edge"><title>\\AtreNet_WPML_WordPress_Bridge&#45;&gt;\\AtreNet_WordPress_Bridge</title>
<path fill="none" stroke="black" d="M395.79,-188.4C375.419,-190.802 353.873,-193.342 333.927,-195.694"/>
<polygon fill="none" stroke="black" points="333.489,-192.221 323.968,-196.868 334.309,-199.173 333.489,-192.221"/>
</g>
<!-- \\Plinth_PostsByTaxonomyQuery -->
<g id="node9" class="node"><title>\\Plinth_PostsByTaxonomyQuery</title>
<polygon fill="none" stroke="black" points="564.237,-142 405.763,-142 405.763,-106 564.237,-106 564.237,-142"/>
<text text-anchor="middle" x="485" y="-120.7" font-family="Times,serif" font-size="11.00">Plinth_PostsByTaxonomyQuery</text>
</g>
<!-- \\WP_Query -->
<g id="node17" class="node"><title>\\WP_Query</title>
<ellipse fill="none" stroke="black" cx="254" cy="-18" rx="52.202" ry="18"/>
<text text-anchor="middle" x="254" y="-13.8" font-family="Times,serif" font-size="14.00" fill="gray">\WP_Query</text>
</g>
<!-- \\Plinth_PostsByTaxonomyQuery&#45;&gt;\\WP_Query -->
<g id="edge4" class="edge"><title>\\Plinth_PostsByTaxonomyQuery&#45;&gt;\\WP_Query</title>
<path fill="none" stroke="black" d="M415.712,-105.846C408.91,-103.213 402.225,-100.27 396,-97 359.868,-78.0203 360.028,-59.1773 324,-40 318.392,-37.0147 312.309,-34.3507 306.158,-31.9976"/>
<polygon fill="none" stroke="black" points="307.088,-28.6136 296.493,-28.5542 304.738,-35.2075 307.088,-28.6136"/>
</g>
<!-- \\AtreNet_Util -->
<g id="node10" class="node"><title>\\AtreNet_Util</title>
<polygon fill="none" stroke="black" points="522.04,-358 447.96,-358 447.96,-322 522.04,-322 522.04,-358"/>
<text text-anchor="middle" x="485" y="-336.7" font-family="Times,serif" font-size="11.00">AtreNet_Util</text>
</g>
<!-- \\AtreNet_DateFormat -->
<g id="node11" class="node"><title>\\AtreNet_DateFormat</title>
<polygon fill="none" stroke="black" points="539.969,-304 430.031,-304 430.031,-268 539.969,-268 539.969,-304"/>
<text text-anchor="middle" x="485" y="-282.7" font-family="Times,serif" font-size="11.00">AtreNet_DateFormat</text>
</g>
<!-- \\Plinth_Widget_PressReleases -->
<g id="node12" class="node"><title>\\Plinth_Widget_PressReleases</title>
<polygon fill="none" stroke="black" points="558.437,-682 411.563,-682 411.563,-646 558.437,-646 558.437,-682"/>
<text text-anchor="middle" x="485" y="-660.7" font-family="Times,serif" font-size="11.00">Plinth_Widget_PressReleases</text>
</g>
<!-- \\Plinth_Widget_PressReleases&#45;&gt;\\Plinth_Widget_Abstract -->
<g id="edge5" class="edge"><title>\\Plinth_Widget_PressReleases&#45;&gt;\\Plinth_Widget_Abstract</title>
<path fill="none" stroke="black" d="M423.232,-645.947C414.073,-643.055 404.763,-640.019 396,-637 367.084,-627.04 335.238,-614.942 309.139,-604.724"/>
<polygon fill="none" stroke="black" points="310.387,-601.454 299.8,-601.052 307.826,-607.969 310.387,-601.454"/>
</g>
<!-- \\AtreNet_ACF_Helper -->
<g id="node13" class="node"><title>\\AtreNet_ACF_Helper</title>
<polygon fill="none" stroke="black" points="541.754,-412 428.246,-412 428.246,-376 541.754,-376 541.754,-412"/>
<text text-anchor="middle" x="485" y="-390.7" font-family="Times,serif" font-size="11.00">AtreNet_ACF_Helper</text>
</g>
<!-- \\AtreNet_ACF_Helper&#45;&gt;\\AtreNet_WordPress_Helper -->
<g id="edge6" class="edge"><title>\\AtreNet_ACF_Helper&#45;&gt;\\AtreNet_WordPress_Helper</title>
<path fill="none" stroke="black" d="M427.98,-400.605C399.786,-403.929 365.124,-408.016 334.252,-411.656"/>
<polygon fill="none" stroke="black" points="333.463,-408.225 323.942,-412.872 334.283,-415.176 333.463,-408.225"/>
</g>
<!-- \\AtreNet_ACF_WordPress_Bridge -->
<g id="node14" class="node"><title>\\AtreNet_ACF_WordPress_Bridge</title>
<polygon fill="none" stroke="black" points="568.16,-250 401.84,-250 401.84,-214 568.16,-214 568.16,-250"/>
<text text-anchor="middle" x="485" y="-228.7" font-family="Times,serif" font-size="11.00">AtreNet_ACF_WordPress_Bridge</text>
</g>
<!-- \\AtreNet_ACF_WordPress_Bridge&#45;&gt;\\AtreNet_WordPress_Bridge -->
<g id="edge7" class="edge"><title>\\AtreNet_ACF_WordPress_Bridge&#45;&gt;\\AtreNet_WordPress_Bridge</title>
<path fill="none" stroke="black" d="M401.649,-222.291C379.621,-219.693 355.865,-216.892 334.021,-214.317"/>
<polygon fill="none" stroke="black" points="334.141,-210.807 323.8,-213.112 333.322,-217.759 334.141,-210.807"/>
</g>
<!-- \\Plinth -->
<g id="node15" class="node"><title>\\Plinth</title>
<polygon fill="none" stroke="black" points="512,-88 458,-88 458,-52 512,-52 512,-88"/>
<text text-anchor="middle" x="485" y="-66.7" font-family="Times,serif" font-size="11.00">Plinth</text>
</g>
<!-- \\WP_Widget -->
<g id="node18" class="node"><title>\\WP_Widget</title>
<ellipse fill="none" stroke="black" cx="56" cy="-583" rx="55.8611" ry="18"/>
<text text-anchor="middle" x="56" y="-578.8" font-family="Times,serif" font-size="14.00" fill="gray">\WP_Widget</text>
</g>
<!-- \\Plinth_Widget_Abstract&#45;&gt;\\WP_Widget -->
<g id="edge8" class="edge"><title>\\Plinth_Widget_Abstract&#45;&gt;\\WP_Widget</title>
<path fill="none" stroke="black" d="M192.594,-583C170.355,-583 145.071,-583 122.411,-583"/>
<polygon fill="none" stroke="black" points="122.204,-579.5 112.204,-583 122.204,-586.5 122.204,-579.5"/>
</g>
</g>
</svg>
